<?xml version="1.0" standalone="no"?>
<!DOCTYPE svg PUBLIC "-//W3C//DTD SVG 20010904//EN"
 "http://www.w3.org/TR/2001/REC-SVG-20010904/DTD/svg10.dtd">
<svg version="1.0" xmlns="http://www.w3.org/2000/svg"
 width="184.000000pt" height="184.000000pt" viewBox="0 0 184.000000 184.000000"
 preserveAspectRatio="xMidYMid meet">

<g transform="translate(0.000000,184.000000) scale(0.100000,-0.100000)"
fill="#000000" stroke="none">
<path d="M190 1010 l0 -490 320 0 320 0 0 90 0 90 -225 0 -225 0 0 110 0 110
210 0 210 0 0 90 0 90 -210 0 -210 0 0 110 0 110 215 0 215 0 0 90 0 90 -310
0 -310 0 0 -490z"/>
<path d="M1042 953 c3 -248 5 -271 24 -313 41 -87 103 -130 200 -138 95 -7
170 25 208 89 9 16 21 29 27 29 14 0 11 -184 -3 -198 -8 -8 -60 -12 -170 -12
l-158 0 0 -85 0 -85 226 0 226 0 34 34 34 34 0 456 0 456 -90 0 -90 0 0 -201
c0 -116 -5 -219 -11 -245 -23 -89 -104 -132 -194 -102 -32 10 -45 22 -62 58
-22 42 -23 56 -23 267 l0 223 -91 0 -90 0 3 -267z"/>
</g>
</svg>
